<?xml version="1.0" encoding="UTF-8"?>
<svg width="900" height="350" version="1.1" xmlns="http://www.w3.org/2000/svg" xmlns:xlink="http://www.w3.org/1999/xlink">
	<defs>
		<linearGradient id="a">
			<stop stop-color="#ffdb7c" offset="0"/>
			<stop stop-color="#ffb14d" offset=".82"/>
			<stop stop-color="#ff881f" offset="1"/>
		</linearGradient>
		<radialGradient id="p" cx="512.79" cy="575.77" r="23.89" gradientTransform="matrix(.2108 0 0 .2113 -29.685 168.34)" gradientUnits="userSpaceOnUse" xlink:href="#a"/>
		<filter id="w" x="-.31709" y="-.31709" width="1.6342" height="1.6342" color-interpolation-filters="sRGB">
			<feGaussianBlur stdDeviation="1.3211993"/>
		</filter>
		<radialGradient id="o" cx="512.79" cy="575.77" r="23.89" gradientTransform="matrix(.31789 0 0 .31789 -39.895 104.75)" gradientUnits="userSpaceOnUse">
			<stop stop-color="#fffae3" offset="0"/>
			<stop stop-color="#ffe2a6" offset=".72"/>
			<stop stop-color="#ffca6a" offset="1"/>
		</radialGradient>
		<radialGradient id="n" cx="512.79" cy="575.77" r="23.89" gradientTransform="matrix(.4275 0 0 .43847 -50.534 32.544)" gradientUnits="userSpaceOnUse">
			<stop stop-color="#fff" offset="0"/>
			<stop stop-color="#fefeba" offset="1"/>
		</radialGradient>
		<radialGradient id="m" cx="512.79" cy="575.77" r="23.89" gradientTransform="matrix(.48231 0 0 .50424 -33.604 -7.3246)" gradientUnits="userSpaceOnUse">
			<stop stop-color="#fff" offset="0"/>
			<stop stop-color="#ffe" offset=".74"/>
			<stop stop-color="#ffd" offset="1"/>
		</radialGradient>
		<radialGradient id="l" cx="657.24" cy="556.88" r="48.335" gradientTransform="matrix(.47135 0 0 .46593 -29.126 12.53)" gradientUnits="userSpaceOnUse">
			<stop stop-color="#fff" offset="0"/>
			<stop stop-color="#f8f8ff" offset=".75"/>
			<stop stop-color="#d6dfff" offset="1"/>
		</radialGradient>
		<radialGradient id="k" cx="943.3" cy="470.3" r="124.33" gradientTransform="matrix(.4973 0 0 .50162 -50.471 -2.9107)" gradientUnits="userSpaceOnUse">
			<stop stop-color="#fff" offset="0"/>
			<stop stop-color="#f8f8ff" offset=".67"/>
			<stop stop-color="#d6dfff" offset=".96"/>
			<stop stop-color="#a4b8ff" offset="1"/>
		</radialGradient>
		<radialGradient id="j" cx="1576.3" cy="341.41" r="271.47" gradientTransform="matrix(.48915 0 0 .49113 -62.794 -5.6749)" gradientUnits="userSpaceOnUse">
			<stop stop-color="#fff" offset="0"/>
			<stop stop-color="#f8f8ff" offset=".65"/>
			<stop stop-color="#d6dfff" offset=".86"/>
			<stop stop-color="#a4b8ff" offset=".96"/>
			<stop stop-color="#7391ff" offset="1"/>
		</radialGradient>
		<filter id="v" x="-.10801" y="-.10801" width="1.216" height="1.216" color-interpolation-filters="sRGB">
			<feGaussianBlur stdDeviation="11.970558"/>
		</filter>
		<filter id="u" x="-.28521" y="-.28521" width="1.5704" height="1.5704" color-interpolation-filters="sRGB">
			<feGaussianBlur stdDeviation="1.9013751"/>
		</filter>
		<filter id="t" x="-.19423" y="-.19423" width="1.3885" height="1.3885" color-interpolation-filters="sRGB">
			<feGaussianBlur stdDeviation="10.035374"/>
		</filter>
		<filter id="s" x="-.25104" y="-.25104" width="1.5021" height="1.5021" color-interpolation-filters="sRGB">
			<feGaussianBlur stdDeviation="4.8116346"/>
		</filter>
		<filter id="r" x="-.20689" y="-.20689" width="1.4138" height="1.4138" color-interpolation-filters="sRGB">
			<feGaussianBlur stdDeviation="2.0688857"/>
		</filter>
		<filter id="q" x="-.19256" y="-.19256" width="1.3851" height="1.3851" color-interpolation-filters="sRGB">
			<feGaussianBlur stdDeviation="1.6046416"/>
		</filter>
		<radialGradient id="i" cx="512.79" cy="575.77" r="23.89" gradientTransform="matrix(.2108 0 0 .2113 -29.685 177.01)" gradientUnits="userSpaceOnUse" xlink:href="#a"/>
		<radialGradient id="h" cx="512.79" cy="575.77" r="23.89" gradientTransform="matrix(.2108 0 0 .2113 1005.7 -.82386)" gradientUnits="userSpaceOnUse" xlink:href="#a"/>
	</defs>
	<rect y="6.1035e-7" width="900" height="350"/>
	<use transform="translate(0,111.41)" width="100%" height="100%" opacity=".4" xlink:href="#b"/>
	<use transform="translate(0,236.6)" width="100%" height="100%" opacity=".4" xlink:href="#c"/>
	<circle id="g" cx="123.64" cy="287" r="8" fill="url(#o)"/>
	<use transform="translate(0,14.856)" width="100%" height="100%" opacity=".4" xlink:href="#g"/>
	<use transform="matrix(1.9103 0 0 .70982 -112.55 91.281)" width="100%" height="100%" filter="url(#u)" opacity=".22671" xlink:href="#g"/>
	<circle id="f" cx="168.69" cy="285" r="10" fill="url(#n)"/>
	<use transform="matrix(2.0369 0 0 .72461 -174.91 88.485)" width="100%" height="100%" filter="url(#q)" opacity=".21429" xlink:href="#f"/>
	<use transform="translate(0,18.532)" width="100%" height="100%" opacity=".4" xlink:href="#f"/>
	<circle id="e" cx="213.72" cy="283" r="12" fill="url(#m)"/>
	<use transform="matrix(1.744 0 0 .47239 -159.02 161.31)" width="100%" height="100%" filter="url(#r)" opacity=".21429" xlink:href="#e"/>
	<use transform="translate(0,20.246)" width="100%" height="100%" opacity=".4" xlink:href="#e"/>
	<circle id="d" cx="280.67" cy="272" r="23" fill="url(#l)"/>
	<use transform="translate(0,41.175)" width="100%" height="100%" opacity=".4" xlink:href="#d"/>
	<circle id="c" cx="708.27" cy="162" r="133" fill="url(#j)"/>
	<circle id="b" cx="418.63" cy="233" r="62" fill="url(#k)"/>
	<use transform="matrix(1.3312 0 0 .43077 -138.65 194.63)" width="100%" height="100%" filter="url(#t)" opacity=".18944" xlink:href="#b"/>
	<circle cx="78.412" cy="290" r="5" fill="url(#p)"/>
	<circle cx="78.412" cy="298.67" r="5" fill="url(#i)" opacity=".4"/>
	<circle transform="matrix(2.5495 0 0 .96068 -2761.2 178.91)" cx="1113.8" cy="120.84" r="5" fill="url(#h)" filter="url(#w)" opacity=".3" style="mix-blend-mode:normal"/>
	<use transform="matrix(1.4693 0 0 .52413 -131.72 152.44)" width="100%" height="100%" filter="url(#s)" opacity=".29503" xlink:href="#d"/>
	<use transform="matrix(1.3319 0 0 .3144 -235.05 244.07)" width="100%" height="100%" filter="url(#v)" opacity=".18012" xlink:href="#c"/>
	<g fill="#ffffff" font-family="'DejaVu Sans'" font-size="30px" font-weight="bold" text-anchor="middle">
		<text x="78" y="343">M</text>
		<text x="121" y="343">K</text>
		<text x="169" y="343">G</text>
		<text x="213" y="343">F</text>
		<text x="280" y="343">A</text>
		<text x="418" y="343">B</text>
		<text x="708" y="343">O</text>
	</g>
</svg>
