<?xml version="1.0" encoding="UTF-8" standalone="no"?>
<!-- Created with Inkscape (http://www.inkscape.org/) -->

<svg
   width="173.48666mm"
   height="21.705643mm"
   viewBox="0 0 173.48666 21.705643"
   version="1.1"
   id="svg5"
   inkscape:export-filename="bitmap.png"
   inkscape:export-xdpi="96"
   inkscape:export-ydpi="96"
   inkscape:version="1.2.2 (b0a8486541, 2022-12-01)"
   sodipodi:docname="logo (copia).svg"
   xmlns:inkscape="http://www.inkscape.org/namespaces/inkscape"
   xmlns:sodipodi="http://sodipodi.sourceforge.net/DTD/sodipodi-0.dtd"
   xmlns="http://www.w3.org/2000/svg"
   xmlns:svg="http://www.w3.org/2000/svg">
  <sodipodi:namedview
     id="namedview7"
     pagecolor="#ffffff"
     bordercolor="#000000"
     borderopacity="0.25"
     inkscape:showpageshadow="2"
     inkscape:pageopacity="0.0"
     inkscape:pagecheckerboard="0"
     inkscape:deskcolor="#d1d1d1"
     inkscape:document-units="mm"
     showgrid="false"
     showguides="false"
     inkscape:zoom="1.4142136"
     inkscape:cx="332.34019"
     inkscape:cy="443.0024"
     inkscape:window-width="1920"
     inkscape:window-height="1008"
     inkscape:window-x="0"
     inkscape:window-y="0"
     inkscape:window-maximized="1"
     inkscape:current-layer="text61" />
  <defs
     id="defs2">
    <rect
       x="63.306248"
       y="282.90384"
       width="232.38266"
       height="201.35548"
       id="rect63" />
  </defs>
  <g
     inkscape:label="Capa 1"
     inkscape:groupmode="layer"
     id="layer1"
     transform="translate(-16.06629,-80.625211)">
    <g
       aria-label="EXOCOSMOS"
       transform="matrix(2.2217487,0,0,2.2217487,-127.62451,-552.83744)"
       id="text61"
       style="font-size:12px;font-family:Montserrat;-inkscape-font-specification:'Montserrat, Normal';white-space:pre;shape-inside:url(#rect63);fill:#ffffff;stroke:none">
      <path
         d="m 64.674641,293.93342 v -8.4 h 5.76 v 0.768 h -4.872 v 6.864 h 5.052 v 0.768 z m 0.792,-3.888 v -0.756 h 4.44 v 0.756 z"
         id="path287"
         inkscape:export-filename="./path287.svg"
         inkscape:export-xdpi="96"
         inkscape:export-ydpi="96" />
      <path
         d="m 71.444257,293.93342 3.444,-4.656 v 0.684 l -3.24,-4.428 h 1.02 l 2.724,3.696 -0.396,0.012 2.724,-3.708 h 0.96 l -3.204,4.368 v -0.624 l 3.432,4.656 h -1.032 l -2.904,-3.948 h 0.372 l -2.88,3.948 z"
         id="path289" />
      <path
         d="m 83.852263,294.00542 q -0.948,0 -1.764,-0.312 -0.804,-0.324 -1.404,-0.9 -0.588,-0.588 -0.924,-1.356 -0.324,-0.78 -0.324,-1.704 0,-0.924 0.324,-1.692 0.336,-0.78 0.924,-1.356 0.6,-0.588 1.404,-0.9 0.804,-0.324 1.764,-0.324 0.948,0 1.752,0.324 0.804,0.312 1.392,0.888 0.6,0.576 0.924,1.356 0.336,0.78 0.336,1.704 0,0.924 -0.336,1.704 -0.324,0.78 -0.924,1.356 -0.588,0.576 -1.392,0.9 -0.804,0.312 -1.752,0.312 z m 0,-0.792 q 0.756,0 1.392,-0.252 0.648,-0.264 1.116,-0.732 0.48,-0.48 0.744,-1.104 0.264,-0.636 0.264,-1.392 0,-0.756 -0.264,-1.38 -0.264,-0.636 -0.744,-1.104 -0.468,-0.48 -1.116,-0.732 -0.636,-0.264 -1.392,-0.264 -0.756,0 -1.404,0.264 -0.648,0.252 -1.128,0.732 -0.468,0.468 -0.744,1.104 -0.264,0.624 -0.264,1.38 0,0.744 0.264,1.38 0.276,0.636 0.744,1.116 0.48,0.468 1.128,0.732 0.648,0.252 1.404,0.252 z"
         id="path291" />
      <path
         d="m 93.896272,294.00542 q -0.948,0 -1.752,-0.312 -0.804,-0.324 -1.392,-0.9 -0.588,-0.576 -0.924,-1.356 -0.324,-0.78 -0.324,-1.704 0,-0.924 0.324,-1.704 0.336,-0.78 0.924,-1.356 0.6,-0.576 1.404,-0.888 0.804,-0.324 1.752,-0.324 0.912,0 1.716,0.312 0.804,0.3 1.356,0.912 l -0.564,0.564 q -0.516,-0.528 -1.14,-0.756 -0.624,-0.24 -1.344,-0.24 -0.756,0 -1.404,0.264 -0.648,0.252 -1.128,0.732 -0.48,0.468 -0.756,1.104 -0.264,0.624 -0.264,1.38 0,0.756 0.264,1.392 0.276,0.624 0.756,1.104 0.48,0.468 1.128,0.732 0.648,0.252 1.404,0.252 0.72,0 1.344,-0.24 0.624,-0.24 1.14,-0.768 l 0.564,0.564 q -0.552,0.612 -1.356,0.924 -0.804,0.312 -1.728,0.312 z"
         id="path293" />
      <path
         d="m 102.00827,294.00542 q -0.948,0 -1.764,-0.312 -0.804001,-0.324 -1.404001,-0.9 -0.588,-0.588 -0.924,-1.356 -0.324,-0.78 -0.324,-1.704 0,-0.924 0.324,-1.692 0.336,-0.78 0.924,-1.356 0.6,-0.588 1.404001,-0.9 0.804,-0.324 1.764,-0.324 0.948,0 1.752,0.324 0.804,0.312 1.392,0.888 0.6,0.576 0.924,1.356 0.336,0.78 0.336,1.704 0,0.924 -0.336,1.704 -0.324,0.78 -0.924,1.356 -0.588,0.576 -1.392,0.9 -0.804,0.312 -1.752,0.312 z m 0,-0.792 q 0.756,0 1.392,-0.252 0.648,-0.264 1.116,-0.732 0.48,-0.48 0.744,-1.104 0.264,-0.636 0.264,-1.392 0,-0.756 -0.264,-1.38 -0.264,-0.636 -0.744,-1.104 -0.468,-0.48 -1.116,-0.732 -0.636,-0.264 -1.392,-0.264 -0.756,0 -1.404,0.264 -0.648001,0.252 -1.128001,0.732 -0.468,0.468 -0.744,1.104 -0.264,0.624 -0.264,1.38 0,0.744 0.264,1.38 0.276,0.636 0.744,1.116 0.48,0.468 1.128001,0.732 0.648,0.252 1.404,0.252 z"
         id="path295" />
      <path
         d="m 110.72028,294.00542 q -0.936,0 -1.8,-0.3 -0.852,-0.312 -1.32,-0.792 l 0.348,-0.684 q 0.444,0.432 1.188,0.732 0.756,0.288 1.584,0.288 0.792,0 1.284,-0.192 0.504,-0.204 0.732,-0.54 0.24,-0.336 0.24,-0.744 0,-0.492 -0.288,-0.792 -0.276,-0.3 -0.732,-0.468 -0.456,-0.18 -1.008,-0.312 -0.552,-0.132 -1.104,-0.276 -0.552,-0.156 -1.02,-0.408 -0.456,-0.252 -0.744,-0.66 -0.276,-0.42 -0.276,-1.092 0,-0.624 0.324,-1.14 0.336,-0.528 1.02,-0.84 0.684,-0.324 1.752,-0.324 0.708,0 1.404,0.204 0.696,0.192 1.2,0.54 l -0.3,0.708 q -0.54,-0.36 -1.152,-0.528 -0.6,-0.168 -1.164,-0.168 -0.756,0 -1.248,0.204 -0.492,0.204 -0.732,0.552 -0.228,0.336 -0.228,0.768 0,0.492 0.276,0.792 0.288,0.3 0.744,0.468 0.468,0.168 1.02,0.3 0.552,0.132 1.092,0.288 0.552,0.156 1.008,0.408 0.468,0.24 0.744,0.648 0.288,0.408 0.288,1.068 0,0.612 -0.336,1.14 -0.336,0.516 -1.032,0.84 -0.684,0.312 -1.764,0.312 z"
         id="path297" />
      <path
         d="m 115.78428,293.93342 v -8.4 h 0.732 l 3.84,6.552 h -0.384 l 3.804,-6.552 h 0.732 v 8.4 h -0.852 v -7.068 h 0.204 l -3.504,6 h -0.42 l -3.528,-6 h 0.228 v 7.068 z"
         id="path299" />
      <path
         d="m 139.62828,294.00542 q -0.936,0 -1.8,-0.3 -0.852,-0.312 -1.32,-0.792 l 0.348,-0.684 q 0.444,0.432 1.188,0.732 0.756,0.288 1.584,0.288 0.792,0 1.284,-0.192 0.504,-0.204 0.732,-0.54 0.24,-0.336 0.24,-0.744 0,-0.492 -0.288,-0.792 -0.276,-0.3 -0.732,-0.468 -0.456,-0.18 -1.008,-0.312 -0.552,-0.132 -1.104,-0.276 -0.552,-0.156 -1.02,-0.408 -0.456,-0.252 -0.744,-0.66 -0.276,-0.42 -0.276,-1.092 0,-0.624 0.324,-1.14 0.336,-0.528 1.02,-0.84 0.684,-0.324 1.752,-0.324 0.708,0 1.404,0.204 0.696,0.192 1.2,0.54 l -0.3,0.708 q -0.54,-0.36 -1.152,-0.528 -0.6,-0.168 -1.164,-0.168 -0.756,0 -1.248,0.204 -0.492,0.204 -0.732,0.552 -0.228,0.336 -0.228,0.768 0,0.492 0.276,0.792 0.288,0.3 0.744,0.468 0.468,0.168 1.02,0.3 0.552,0.132 1.092,0.288 0.552,0.156 1.008,0.408 0.468,0.24 0.744,0.648 0.288,0.408 0.288,1.068 0,0.612 -0.336,1.14 -0.336,0.516 -1.032,0.84 -0.684,0.312 -1.764,0.312 z"
         id="path303" />
      <g
         id="SVGRepo_iconCarrier"
         transform="matrix(0.01993896,0,0,0.01993896,126.01669,284.89915)">
        <g
           id="g3989">
          <path
             d="M 462.6,146.2 C 502.2,84.1 511.1,43.6 489.8,22.3 467.5,0.1 424.4,10.6 358,54.5 324.8,34.7 286,23.2 244.6,23.2 122.4,23.2 23.3,122.3 23.3,244.5 c 0,41.5 11.4,80.3 31.3,113.4 -44,66.5 -54.5,109.6 -32.3,131.8 7.5,7.5 17.3,11.3 29.7,11.3 22.8,0 54,-12.8 94.2,-38.4 5.8,-3.7 11.8,-7.7 17.9,-11.9 24.9,9.7 52.1,15.1 80.4,15.1 122.2,0 221.3,-99.1 221.3,-221.3 0,-28.4 -5.4,-55.5 -15.1,-80.4 4.2,-6.1 8.1,-12.1 11.9,-17.9 z m -2.2,-94.5 c 1.4,10.2 -8.5,35.2 -31.2,70.9 C 418.9,107.1 406.8,92.9 393.1,80.5 432.9,55.8 453.5,51.1 460.4,51.7 Z M 244.5,63.9 c 68.9,0 128.9,38.8 159.4,95.6 C 376.6,196.6 339,241.1 290,290 241.1,338.9 196.6,376.5 159.4,403.8 102.6,373.3 63.8,313.3 63.8,244.5 63.9,144.9 144.9,63.9 244.5,63.9 Z M 51.7,460.4 c -0.5,-6.9 4.1,-27.6 28.8,-67.3 12.4,13.7 26.6,25.8 42.1,36.1 -35.7,22.6 -60.7,32.5 -70.9,31.2 z M 425.2,244.5 c 0,99.6 -81,180.7 -180.7,180.7 -13.7,0 -27,-1.5 -39.8,-4.4 36.8,-28.7 75.8,-63.5 114.2,-101.9 38.3,-38.3 73.1,-77.4 101.9,-114.2 2.9,12.8 4.4,26.2 4.4,39.8 z"
             id="path3987"
             sodipodi:nodetypes="cccsscssccssccccccsccccsccccsscscs" />
        </g>
      </g>
    </g>
  </g>
</svg>
